<svg xmlns="http://www.w3.org/2000/svg" width="1563" height="1563" viewBox="0.0 0.0 1563.0 1563.0"><g id="circle"><path id="3" d="M 751.192,1484.054 C 732.058,1483.114 723.816,1482.509 707.358,1480.838 C 697.274,1479.814 682.489,1477.827 664.525,1475.079 C 663.423,1474.910 661.620,1474.577 660.518,1474.339 C 659.416,1474.100 656.823,1473.647 654.757,1473.331 C 652.690,1473.016 650.211,1472.564 649.246,1472.328 C 648.282,1472.093 646.140,1471.636 644.487,1471.314 C 639.744,1470.388 636.651,1469.763 634.217,1469.237 C 632.977,1468.969 631.061,1468.555 629.959,1468.318 C 628.857,1468.081 626.828,1467.630 625.450,1467.316 C 624.073,1467.002 622.044,1466.546 620.942,1466.303 C 619.840,1466.059 617.473,1465.492 615.682,1465.041 C 613.891,1464.590 611.524,1464.005 610.422,1463.742 C 609.320,1463.478 607.572,1463.048 606.539,1462.785 C 605.506,1462.522 603.815,1462.096 602.782,1461.839 C 600.990,1461.392 599.109,1460.873 595.518,1459.830 C 593.014,1459.103 590.581,1458.410 588.379,1457.798 C 587.277,1457.491 585.699,1457.043 584.873,1456.802 C 584.046,1456.560 582.806,1456.216 582.117,1456.037 C 581.428,1455.857 580.414,1455.530 579.863,1455.309 C 579.312,1455.088 577.847,1454.625 576.607,1454.281 C 575.367,1453.938 573.113,1453.266 571.597,1452.788 C 570.082,1452.311 567.827,1451.626 566.587,1451.266 C 565.348,1450.905 564.119,1450.424 563.857,1450.196 C 553.366,1449.353 553.366,1446.941 551.899,1446.449 C 551.604,1446.154 547.122,1444.513 541.038,1442.473 C 539.799,1442.057 538.333,1441.524 537.782,1441.289 C 537.231,1441.053 534.864,1440.142 532.522,1439.263 C 526.725,1437.086 525.562,1436.635 522.378,1435.322 C 521.620,1435.009 520.380,1434.498 519.622,1434.186 C 518.865,1433.873 517.794,1433.445 517.243,1433.234 C 516.692,1433.023 515.173,1432.377 513.867,1431.798 C 512.561,1431.220 511.375,1430.746 511.231,1430.746 C 511.087,1430.746 509.902,1430.273 508.596,1429.694 C 507.290,1429.116 505.771,1428.468 505.220,1428.255 C 503.366,1427.537 493.450,1423.086 486.183,1419.708 C 475.105,1414.559 457.762,1406.037 452.243,1403.031 C 450.383,1402.018 447.453,1400.434 445.731,1399.511 C 442.161,1397.598 438.979,1395.793 432.330,1391.910 C 428.938,1389.929 419.586,1384.316 413.544,1380.634 C 411.615,1379.459 408.753,1377.629 407.184,1376.568 C 405.615,1375.507 404.202,1374.638 404.045,1374.638 C 403.682,1374.638 382.051,1360.231 377.795,1357.154 C 350.045,1337.096 335.037,1325.199 314.889,1307.285 C 296.601,1291.023 267.172,1261.725 257.078,1249.729 C 256.067,1248.528 253.211,1245.216 250.731,1242.369 C 246.202,1237.169 237.042,1226.218 233.070,1221.253 C 227.098,1213.788 217.241,1200.987 214.872,1197.618 C 213.930,1196.278 212.145,1193.759 210.905,1192.019 C 200.987,1178.107 190.818,1163.209 187.896,1158.310 C 187.128,1157.022 185.310,1154.053 183.857,1151.711 C 182.404,1149.369 180.767,1146.663 180.220,1145.699 C 179.674,1144.735 178.803,1143.348 178.284,1142.616 C 177.765,1141.885 177.340,1141.168 177.340,1141.025 C 177.340,1140.881 176.213,1138.927 174.836,1136.682 C 173.458,1134.437 172.331,1132.483 172.331,1132.339 C 172.331,1132.195 171.913,1131.479 171.403,1130.747 C 170.894,1130.016 169.509,1127.614 168.328,1125.410 C 167.146,1123.206 166.018,1121.177 165.821,1120.901 C 164.129,1118.533 152.991,1096.843 147.042,1084.331 C 140.583,1070.746 139.788,1069.006 136.506,1061.287 C 136.154,1060.460 135.411,1058.770 134.856,1057.530 C 134.300,1056.290 133.131,1053.472 132.258,1051.268 C 131.385,1049.064 130.327,1046.471 129.908,1045.507 C 129.489,1044.542 128.943,1043.246 128.696,1042.626 C 128.082,1041.087 127.334,1039.219 126.792,1037.867 C 126.543,1037.247 125.845,1035.387 125.240,1033.734 C 124.636,1032.081 123.959,1030.277 123.737,1029.726 C 123.516,1029.175 122.839,1027.372 122.235,1025.719 C 121.630,1024.066 120.946,1022.262 120.716,1021.711 C 120.485,1021.160 119.820,1019.244 119.238,1017.453 C 118.656,1015.662 117.965,1013.805 116.815,1010.164 C 116.589,1009.902 115.664,1007.321 114.759,1004.428 C 113.854,1001.535 112.912,998.777 111.772,995.028 C 111.352,994.204 110.139,990.388 108.709,985.391 C 108.353,984.151 107.731,982.123 107.324,980.883 C 106.918,979.643 106.400,977.952 106.173,977.125 C 105.945,976.299 105.507,974.721 105.197,973.619 C 104.887,972.517 104.439,970.826 104.200,969.862 C 103.961,968.897 103.541,967.319 103.266,966.355 C 102.449,963.487 100.650,956.735 100.130,954.582 C 99.601,952.395 98.915,949.643 98.507,948.070 C 97.819,945.420 95.509,935.383 94.933,932.540 C 94.368,929.755 93.793,927.045 93.179,924.274 C 92.493,921.177 91.918,918.306 91.175,914.255 C 90.897,912.739 90.444,910.372 90.169,908.995 C 89.893,907.617 89.454,905.137 89.191,903.484 C 88.929,901.831 88.469,899.013 88.169,897.222 C 87.516,893.317 86.800,888.664 86.146,884.072 C 85.881,882.212 85.432,879.056 85.148,877.058 C 83.182,863.241 81.318,844.753 80.107,827.087 C 79.374,816.384 78.813,766.348 79.249,750.440 C 79.948,724.852 82.764,696.145 87.145,669.911 C 87.433,668.189 87.894,665.427 88.169,663.774 C 88.986,658.875 89.645,655.167 90.173,652.502 C 90.446,651.125 90.896,648.758 91.172,647.242 C 91.844,643.561 92.573,639.915 93.125,637.474 C 93.375,636.371 93.850,634.230 94.181,632.714 C 94.512,631.199 94.963,629.170 95.183,628.206 C 95.403,627.241 95.853,625.213 96.185,623.697 C 96.818,620.796 97.360,618.495 98.188,615.181 C 98.464,614.079 98.925,612.219 99.213,611.048 C 99.501,609.877 99.935,608.130 100.176,607.165 C 100.720,604.991 102.594,598 103.266,595.643 C 103.541,594.679 103.959,593.101 104.194,592.137 C 104.945,589.068 105.275,587.904 105.687,586.876 C 105.908,586.325 106.367,584.860 106.706,583.620 C 107.044,582.380 107.495,580.802 107.707,580.113 C 107.918,579.425 108.378,577.847 108.728,576.607 C 109.609,573.484 117.161,550.534 117.712,549.304 C 117.959,548.753 118.447,547.401 118.797,546.299 C 119.147,545.196 119.613,544.080 120.692,540.656 C 120.945,540.177 121.643,538.433 122.244,536.780 C 122.844,535.127 123.516,533.324 123.737,532.773 C 123.959,532.222 124.636,530.418 125.240,528.765 C 125.845,527.112 126.543,525.252 126.792,524.632 C 127.040,524.012 127.447,522.998 127.695,522.378 C 127.943,521.757 128.619,520.182 129.198,518.876 C 129.777,517.571 130.250,516.385 130.250,516.241 C 130.250,516.097 130.723,514.911 131.302,513.605 C 131.881,512.299 132.534,510.780 132.754,510.229 C 133.127,509.294 133.491,508.434 135.562,503.592 C 136.004,502.559 136.770,500.811 137.263,499.709 C 137.757,498.607 138.549,496.804 139.023,495.701 C 139.498,494.599 140.562,492.232 141.389,490.441 C 142.216,488.650 143.570,485.720 144.396,483.929 C 146.726,478.879 155.517,461.198 158.468,455.625 C 162.312,448.366 165.404,442.674 165.816,442.099 C 166.014,441.823 166.851,440.358 167.676,438.842 C 168.502,437.327 169.662,435.241 170.253,434.208 C 170.845,433.175 171.759,431.571 172.285,430.643 C 172.810,429.715 174.163,427.438 175.290,425.582 C 176.418,423.727 177.340,422.135 177.340,422.046 C 177.340,421.956 178.504,420.007 179.926,417.713 C 181.348,415.420 183.404,412.094 184.495,410.322 C 185.586,408.550 188.255,404.422 190.426,401.148 C 192.597,397.874 194.373,395.101 194.373,394.986 C 194.373,394.628 206.377,377.214 211.299,370.432 C 214.902,365.466 223.468,354.148 227.202,349.421 C 228.726,347.492 230.697,344.985 231.584,343.848 C 233.230,341.740 241.055,332.282 247.488,324.623 C 262.350,306.928 294.249,274.155 310.444,259.942 C 321.900,249.888 323.253,248.712 325.370,246.974 C 326.544,246.010 329.505,243.527 331.950,241.458 C 336.538,237.574 345.331,230.453 347.715,228.689 C 348.460,228.138 351.481,225.771 354.428,223.429 C 357.375,221.087 361.286,218.099 363.120,216.789 C 370.451,211.552 373.682,209.254 378.476,205.874 C 384.954,201.307 402.744,189.363 403.069,189.363 C 403.207,189.363 404.990,188.236 407.031,186.859 C 409.073,185.481 410.882,184.354 411.051,184.354 C 411.221,184.354 412.302,183.707 413.454,182.917 C 415.657,181.406 429.568,173.016 433.206,171.003 C 437.047,168.879 439.566,167.478 441.347,166.475 C 443.430,165.302 449.405,162.049 455.060,159.007 C 463.428,154.507 487.601,142.867 498.958,137.869 C 500.198,137.323 502.339,136.376 503.717,135.765 C 505.094,135.153 506.898,134.365 507.725,134.013 C 508.551,133.661 510.295,132.895 511.601,132.312 C 512.907,131.729 514.271,131.252 514.632,131.252 C 514.993,131.252 515.503,131.060 515.765,130.826 C 516.209,130.429 526.287,126.409 532.522,124.141 C 534.038,123.590 535.728,122.958 536.279,122.737 C 536.830,122.516 538.070,122.065 539.035,121.734 C 539.999,121.403 541.239,120.952 541.790,120.732 C 542.341,120.512 543.581,120.061 544.545,119.730 C 545.510,119.399 546.749,118.933 547.300,118.696 C 547.852,118.458 552.586,116.875 557.821,115.178 C 563.056,113.481 567.790,111.924 568.341,111.718 C 569.477,111.295 574.737,109.674 578.110,108.709 C 579.349,108.353 581.378,107.731 582.618,107.324 C 583.858,106.918 585.549,106.400 586.375,106.173 C 587.202,105.945 588.667,105.537 589.632,105.265 C 590.596,104.993 593.132,104.304 595.268,103.734 C 597.403,103.164 600.897,102.229 603.032,101.656 C 606.850,100.631 608.318,100.255 612.551,99.213 C 613.722,98.925 615.582,98.464 616.684,98.188 C 622.956,96.620 623.488,96.496 629.583,95.164 C 630.892,94.878 632.977,94.418 634.217,94.143 C 638.319,93.231 640.948,92.688 643.736,92.177 C 645.251,91.899 647.618,91.448 648.996,91.175 C 652.405,90.499 657.523,89.575 665.778,88.146 C 667.569,87.836 670.161,87.383 671.539,87.139 C 672.917,86.895 675.847,86.464 678.051,86.180 C 680.256,85.896 683.750,85.437 685.816,85.160 C 687.883,84.883 691.602,84.426 694.082,84.145 C 696.562,83.863 700.507,83.413 702.849,83.144 C 706.880,82.680 710.499,82.302 722.136,81.134 C 749.433,78.392 812.846,78.396 841.114,81.143 C 854.052,82.400 865.701,83.687 877.184,85.130 C 886.363,86.283 889.262,86.715 897.723,88.188 C 899.238,88.452 901.831,88.882 903.484,89.144 C 905.137,89.406 906.941,89.725 907.492,89.854 C 908.577,90.107 913.008,90.963 917.010,91.691 C 920.834,92.387 924.784,93.175 927.280,93.740 C 928.520,94.021 930.436,94.449 931.538,94.692 C 932.640,94.935 934.669,95.383 936.047,95.687 C 938.868,96.310 959.646,101.511 962.347,102.271 C 963.311,102.542 964.889,102.959 965.854,103.198 C 967.528,103.613 969.419,104.136 972.993,105.174 C 975.188,105.811 978.030,106.611 980.006,107.146 C 980.901,107.389 982.649,107.920 983.888,108.326 C 985.128,108.733 987.157,109.357 988.397,109.715 C 992.929,111.020 1003.199,114.341 1007.315,115.705 C 1007.794,115.971 1010.327,116.884 1012.944,117.735 C 1015.562,118.587 1018.154,119.473 1018.705,119.706 C 1019.256,119.939 1020.496,120.401 1021.461,120.732 C 1022.425,121.063 1023.665,121.514 1024.216,121.735 C 1024.767,121.956 1026.570,122.632 1028.224,123.237 C 1029.877,123.841 1031.680,124.517 1032.231,124.739 C 1032.782,124.961 1034.586,125.638 1036.239,126.242 C 1039.730,127.519 1040.617,127.869 1043.002,128.907 C 1043.966,129.327 1045.995,130.157 1047.511,130.751 C 1049.026,131.345 1051.055,132.175 1052.019,132.595 C 1052.984,133.014 1054.223,133.537 1054.775,133.755 C 1055.326,133.974 1057.016,134.719 1058.532,135.410 C 1060.047,136.102 1062.301,137.115 1063.541,137.660 C 1068.730,139.944 1070.991,140.964 1074.312,142.519 C 1076.241,143.422 1079.848,145.109 1082.327,146.268 C 1088.720,149.256 1103.140,156.434 1107.876,158.985 C 1110.081,160.172 1113.575,162.049 1115.641,163.156 C 1117.708,164.262 1120.413,165.734 1121.653,166.425 C 1122.893,167.116 1124.922,168.245 1126.162,168.934 C 1130.298,171.230 1131.875,172.153 1139.437,176.702 C 1150.954,183.630 1153.725,185.342 1156.818,187.434 C 1158.387,188.495 1159.786,189.363 1159.926,189.363 C 1160.233,189.363 1177.562,201.003 1184.341,205.762 C 1186.996,207.627 1190.603,210.155 1192.357,211.382 C 1199.271,216.219 1209.155,223.798 1223.257,235.075 C 1251.819,257.914 1285.736,290.586 1311.077,319.669 C 1314.271,323.334 1328.019,339.900 1331.806,344.646 C 1333.184,346.372 1334.890,348.491 1335.597,349.354 C 1339.467,354.076 1350.271,368.684 1357.692,379.228 C 1362.543,386.120 1371.633,399.674 1371.633,400.014 C 1371.633,400.117 1373.211,402.583 1375.139,405.493 C 1377.068,408.404 1378.646,410.915 1378.646,411.073 C 1378.646,411.230 1379.290,412.302 1380.077,413.454 C 1381.584,415.660 1385.660,422.309 1385.660,422.561 C 1385.660,422.643 1386.582,424.228 1387.710,426.083 C 1389.818,429.553 1390.899,431.424 1393.056,435.336 C 1393.740,436.575 1394.695,438.266 1395.178,439.093 C 1399.043,445.707 1403.067,453.374 1410.581,468.432 C 1417.483,482.264 1418.669,484.730 1421.890,491.944 C 1423.056,494.556 1423.613,495.809 1426.233,501.713 C 1426.845,503.091 1427.633,504.894 1427.985,505.721 C 1428.338,506.547 1429.103,508.292 1429.686,509.598 C 1430.269,510.904 1430.746,512.267 1430.746,512.628 C 1430.746,512.990 1430.938,513.499 1431.172,513.761 C 1431.406,514.023 1431.988,515.251 1432.465,516.491 C 1432.943,517.731 1433.676,519.535 1434.095,520.499 C 1435.137,522.899 1435.486,523.786 1436.758,527.262 C 1437.362,528.915 1438.039,530.719 1438.261,531.270 C 1438.483,531.821 1439.159,533.624 1439.763,535.277 C 1440.368,536.931 1441.051,538.734 1441.282,539.285 C 1441.512,539.836 1441.988,541.189 1442.337,542.291 C 1442.688,543.393 1443.153,544.509 1444.185,547.826 C 1444.412,548.088 1444.904,549.317 1445.277,550.557 C 1445.650,551.797 1446.100,553.036 1446.276,553.312 C 1446.452,553.588 1446.884,554.827 1447.236,556.067 C 1447.588,557.307 1448.080,558.713 1448.328,559.191 C 1448.680,561.469 1450.141,564.241 1450.232,565.467 C 1450.480,565.946 1451.182,568.028 1451.795,570.094 C 1452.407,572.161 1453.088,574.302 1453.307,574.853 C 1453.527,575.404 1453.854,576.419 1454.033,577.108 C 1454.212,577.797 1454.556,579.036 1454.798,579.863 C 1455.326,581.673 1456.052,584.208 1456.768,586.751 C 1457.059,587.784 1457.510,589.363 1457.770,590.258 C 1459.143,594.986 1460.795,601.140 1462.041,606.163 C 1462.485,607.954 1463.064,610.265 1463.329,611.298 C 1465.127,618.322 1465.545,620.027 1466.283,623.321 C 1467.444,628.510 1467.775,630.019 1468.067,631.462 C 1468.235,632.289 1468.585,633.923 1468.846,635.094 C 1469.635,638.637 1470.291,641.836 1470.823,644.737 C 1471.101,646.253 1471.552,648.620 1471.825,649.998 C 1473.453,658.212 1475.476,670.247 1476.854,679.930 C 1477.119,681.790 1477.569,684.946 1477.855,686.944 C 1479.730,700.043 1481.839,722.006 1482.846,738.918 C 1483.839,755.575 1484.598,778.016 1484.523,788.513 C 1484.315,818.036 1481.845,851.519 1477.835,879.188 C 1477.576,880.978 1477.143,884.022 1476.874,885.950 C 1476.605,887.879 1476.139,890.923 1475.837,892.713 C 1475.535,894.504 1475.054,897.435 1474.769,899.226 C 1474.063,903.656 1473.457,907.193 1473.095,908.995 C 1472.929,909.821 1472.557,911.737 1472.268,913.253 C 1471.980,914.768 1471.555,916.910 1471.324,918.012 C 1471.093,919.114 1470.644,921.368 1470.326,923.022 C 1470.007,924.675 1469.559,926.816 1469.329,927.781 C 1469.099,928.745 1468.653,930.774 1468.339,932.289 C 1467.610,935.805 1466.872,939.079 1466.306,941.307 C 1466.061,942.271 1465.389,945.089 1464.812,947.569 C 1463.366,953.778 1462.029,959.019 1461.295,961.345 C 1461.077,962.034 1460.631,963.725 1460.303,965.102 C 1459.975,966.480 1459.528,968.171 1459.311,968.860 C 1459.094,969.548 1458.638,971.126 1458.299,972.366 C 1457.960,973.606 1457.509,975.184 1457.297,975.873 C 1457.086,976.562 1456.631,978.140 1456.286,979.380 C 1455.942,980.620 1455.270,982.874 1454.792,984.389 C 1454.315,985.905 1453.647,988.159 1453.307,989.399 C 1452.968,990.639 1452.487,992.045 1451.337,995.793 C 1451.090,996.272 1449.921,999.706 1448.739,1003.426 C 1447.557,1007.146 1446.448,1010.414 1446.275,1010.690 C 1446.103,1010.965 1445.428,1012.882 1444.776,1014.948 C 1444.124,1017.015 1443.406,1018.920 1442.308,1022.344 C 1442.055,1022.823 1441.357,1024.567 1440.756,1026.220 C 1440.156,1027.873 1439.462,1029.732 1439.214,1030.353 C 1438.965,1030.973 1438.557,1031.987 1438.308,1032.607 C 1438.058,1033.227 1436.896,1036.214 1435.727,1039.245 C 1434.557,1042.276 1433.409,1044.970 1433.175,1045.231 C 1432.941,1045.493 1432.750,1046.003 1432.750,1046.364 C 1432.750,1046.725 1432.277,1048.089 1431.698,1049.395 C 1431.119,1050.700 1430.466,1052.220 1430.246,1052.771 C 1430.026,1053.322 1429.458,1054.674 1428.984,1055.776 C 1428.510,1056.879 1427.787,1058.569 1427.378,1059.534 C 1426.969,1060.498 1426.230,1062.189 1425.737,1063.291 C 1425.243,1064.393 1424.451,1066.196 1423.977,1067.299 C 1421.629,1072.755 1416.892,1082.755 1411.636,1093.349 C 1405.230,1106.263 1401.832,1112.737 1396.520,1122.154 C 1395.976,1123.118 1394.851,1125.147 1394.019,1126.662 C 1393.188,1128.178 1391.643,1130.850 1390.586,1132.600 C 1389.530,1134.350 1388.665,1135.888 1388.665,1136.016 C 1388.665,1136.145 1387.989,1137.234 1387.162,1138.435 C 1386.336,1139.636 1385.660,1140.732 1385.660,1140.868 C 1385.660,1141.095 1384.754,1142.596 1378.517,1152.713 C 1377.413,1154.503 1375.891,1157.004 1375.133,1158.269 C 1373.636,1160.771 1363.717,1175.501 1358.129,1183.522 C 1344.680,1202.827 1329.225,1222.715 1314.523,1239.637 C 1313.283,1241.064 1310.353,1244.451 1308.011,1247.163 C 1299.100,1257.482 1279.038,1278.222 1266.815,1289.753 C 1242.512,1312.676 1230.879,1322.614 1205.840,1341.841 C 1194.614,1350.461 1176.631,1363.090 1164.485,1370.884 C 1156.993,1375.692 1148.825,1380.860 1147.452,1381.661 C 1146.626,1382.143 1143.244,1384.178 1139.938,1386.182 C 1136.632,1388.185 1133.250,1390.211 1132.424,1390.683 C 1131.597,1391.156 1128.950,1392.687 1126.543,1394.086 C 1122.115,1396.658 1117.859,1399.010 1110.445,1402.983 C 1105.761,1405.494 1090.350,1413.163 1084.081,1416.103 C 1081.739,1417.202 1077.906,1419.005 1075.564,1420.110 C 1073.222,1421.215 1070.405,1422.509 1069.302,1422.986 C 1068.200,1423.463 1066.171,1424.365 1064.794,1424.991 C 1063.416,1425.617 1061.443,1426.492 1060.410,1426.935 C 1056.032,1428.812 1054.928,1429.285 1053.146,1430.046 C 1052.113,1430.487 1050.761,1431.051 1050.141,1431.298 C 1049.520,1431.546 1048.506,1431.951 1047.886,1432.199 C 1047.266,1432.447 1045.691,1433.123 1044.385,1433.702 C 1043.079,1434.280 1041.780,1434.754 1041.498,1434.754 C 1041.215,1434.754 1040.593,1434.953 1040.114,1435.196 C 1039.300,1435.610 1038.302,1436.033 1035.237,1437.259 C 1034.548,1437.534 1033.478,1437.964 1032.857,1438.212 C 1032.237,1438.460 1030.378,1439.159 1028.725,1439.763 C 1027.071,1440.368 1025.268,1441.052 1024.717,1441.282 C 1024.166,1441.513 1022.250,1442.182 1020.459,1442.769 C 1018.668,1443.356 1016.752,1444.033 1016.200,1444.272 C 1015.649,1444.512 1014.297,1444.994 1013.195,1445.343 C 1012.093,1445.693 1010.976,1446.159 1007.552,1447.263 C 1006.700,1447.740 998.351,1450.508 990.902,1452.782 C 988.835,1453.413 985.905,1454.319 984.389,1454.795 C 982.874,1455.271 980.620,1455.942 979.380,1456.286 C 978.140,1456.631 976.562,1457.086 975.873,1457.297 C 975.184,1457.509 973.606,1457.960 972.366,1458.299 C 971.126,1458.638 969.548,1459.090 968.860,1459.301 C 966.499,1460.026 961.747,1461.322 957.964,1462.273 C 956.792,1462.567 954.877,1463.052 953.706,1463.350 C 946.362,1465.221 942.318,1466.184 937.049,1467.316 C 935.946,1467.553 934.030,1467.973 932.790,1468.248 C 927.548,1469.413 925.870,1469.771 923.022,1470.330 C 918.829,1471.152 915.353,1471.851 913.002,1472.341 C 911.900,1472.571 909.533,1473.011 907.742,1473.317 C 905.951,1473.624 903.359,1474.079 901.981,1474.330 C 891.180,1476.292 863.809,1480.069 852.887,1481.104 C 816.432,1484.560 781.871,1485.563 751.192,1484.054M 814.563,1430.477 C 832.879,1429.362 847.432,1428.200 854.640,1427.277 C 864.933,1425.959 866.668,1425.733 869.920,1425.282 C 880.653,1423.795 882.547,1423.505 889.457,1422.298 C 891.110,1422.010 893.365,1421.638 894.467,1421.471 C 895.569,1421.305 897.372,1420.972 898.475,1420.731 C 899.577,1420.490 901.944,1420.038 903.735,1419.725 C 905.526,1419.412 907.893,1418.965 908.995,1418.730 C 910.097,1418.495 912.351,1418.041 914.004,1417.721 C 915.658,1417.401 917.912,1416.950 919.014,1416.719 C 920.116,1416.488 922.370,1416.022 924.024,1415.683 C 925.677,1415.344 928.269,1414.740 929.785,1414.342 C 931.300,1413.943 933.329,1413.423 934.293,1413.187 C 935.258,1412.950 936.948,1412.532 938.050,1412.257 C 939.153,1411.981 940.956,1411.538 942.058,1411.273 C 943.160,1411.008 946.767,1410.077 950.074,1409.205 C 953.380,1408.333 956.874,1407.441 957.838,1407.225 C 958.803,1407.008 961.283,1406.272 963.349,1405.588 C 965.416,1404.905 968.121,1404.061 969.361,1403.713 C 970.600,1403.364 972.066,1402.909 972.617,1402.701 C 973.619,1402.323 976.828,1401.328 983.888,1399.209 C 985.955,1398.588 988.037,1397.879 991.786,1396.704 C 992.264,1396.442 994.121,1395.751 995.912,1395.169 C 997.702,1394.587 999.619,1393.922 1000.170,1393.693 C 1000.721,1393.463 1001.961,1393.004 1002.925,1392.673 C 1003.889,1392.342 1005.129,1391.890 1005.680,1391.668 C 1006.231,1391.446 1009.162,1390.320 1012.193,1389.166 C 1015.224,1388.013 1018.210,1386.864 1018.831,1386.614 C 1019.451,1386.365 1020.465,1385.958 1021.085,1385.711 C 1021.705,1385.463 1023.001,1384.918 1023.965,1384.499 C 1024.930,1384.080 1027.522,1383.023 1029.726,1382.150 C 1031.931,1381.277 1034.924,1380.019 1036.379,1379.354 C 1037.834,1378.689 1039.124,1378.145 1039.247,1378.145 C 1039.370,1378.145 1040.946,1377.469 1042.751,1376.642 C 1044.556,1375.816 1046.162,1375.139 1046.320,1375.139 C 1047.191,1375.139 1084.725,1356.538 1091.595,1352.701 C 1100.957,1347.473 1102.694,1346.487 1108.127,1343.320 C 1155.169,1315.900 1198.161,1282.973 1238.549,1243.434 C 1251.593,1230.663 1272.042,1208.180 1283.699,1193.791 C 1285.597,1191.449 1288.201,1188.293 1289.487,1186.778 C 1292.682,1183.011 1308.777,1161.499 1314.600,1153.212 C 1323.690,1140.275 1339.063,1115.985 1345.827,1103.869 C 1346.596,1102.491 1347.758,1100.406 1348.408,1099.235 C 1349.058,1098.064 1350.189,1096.035 1350.921,1094.726 C 1354.735,1087.910 1358.281,1081.043 1364.306,1068.801 C 1372.717,1051.714 1373.748,1049.512 1377.901,1039.746 C 1378.253,1038.919 1378.995,1037.228 1379.550,1035.988 C 1380.106,1034.749 1381.276,1031.931 1382.149,1029.726 C 1383.022,1027.522 1384.080,1024.930 1384.499,1023.965 C 1384.918,1023.001 1385.463,1021.705 1385.711,1021.085 C 1385.958,1020.465 1386.364,1019.451 1386.613,1018.831 C 1386.861,1018.210 1387.560,1016.351 1388.164,1014.698 C 1388.769,1013.044 1389.445,1011.241 1389.667,1010.690 C 1389.889,1010.139 1390.566,1008.335 1391.170,1006.682 C 1391.775,1005.029 1392.460,1003.226 1392.692,1002.675 C 1393.281,1001.276 1396.477,991.954 1398.016,987.145 C 1398.722,984.940 1399.472,982.686 1399.683,982.135 C 1399.894,981.584 1400.799,978.766 1401.691,975.873 C 1403.991,968.422 1404.013,968.350 1404.696,965.854 C 1405.035,964.614 1405.508,963.036 1405.747,962.347 C 1405.985,961.658 1406.542,959.742 1406.985,958.089 C 1407.427,956.436 1407.979,954.407 1408.212,953.580 C 1408.967,950.897 1410.775,944.110 1411.248,942.183 C 1412.397,937.505 1412.650,936.484 1412.894,935.546 C 1413.339,933.830 1415.136,926.104 1415.457,924.525 C 1415.625,923.698 1415.979,922.120 1416.244,921.018 C 1416.802,918.695 1417.565,915.067 1418.245,911.500 C 1418.508,910.122 1418.927,907.980 1419.177,906.740 C 1420.508,900.146 1421.142,896.566 1423.265,883.696 C 1424.138,878.397 1425.502,868.735 1426.232,862.656 C 1427.499,852.120 1427.797,849.443 1428.265,844.371 C 1431.020,814.542 1431.684,786.699 1430.341,757.454 C 1429.029,728.910 1427.707,714.075 1424.221,688.822 C 1423.062,680.428 1421.136,668.868 1419.274,659.140 C 1418.971,657.556 1418.499,655.076 1418.224,653.630 C 1417.949,652.183 1417.497,649.985 1417.219,648.745 C 1416.729,646.558 1416.092,643.567 1415.459,640.479 C 1415.075,638.602 1413.325,631.092 1412.687,628.581 C 1412.425,627.549 1411.966,625.745 1411.668,624.574 C 1411.370,623.403 1410.904,621.543 1410.633,620.441 C 1410.151,618.484 1409.938,617.671 1408.771,613.302 C 1408.458,612.131 1407.951,610.215 1407.644,609.044 C 1407.336,607.873 1406.911,606.351 1406.700,605.663 C 1406.489,604.974 1406.037,603.396 1405.698,602.156 C 1405.359,600.916 1404.908,599.338 1404.696,598.649 C 1404.485,597.960 1404.027,596.382 1403.680,595.142 C 1402.817,592.060 1401.140,586.593 1400.683,585.374 C 1400.477,584.822 1399.338,581.328 1398.153,577.609 C 1396.968,573.889 1395.814,570.631 1394.779,567.314 C 1394.560,567.052 1394.093,565.936 1393.742,564.834 C 1393.390,563.732 1392.691,561.703 1392.187,560.325 C 1389.757,553.676 1389.037,551.731 1388.662,550.807 C 1388.438,550.256 1386.750,545.973 1384.910,541.289 C 1383.071,536.605 1381.247,532.040 1380.857,531.144 C 1380.468,530.249 1379.811,528.727 1379.398,527.763 C 1377.402,523.107 1376.929,522.031 1375.584,519.099 C 1374.788,517.365 1374.138,515.839 1374.138,515.707 C 1374.138,515.577 1373.236,513.558 1372.134,511.221 C 1371.032,508.885 1369.200,505 1368.063,502.590 C 1363.259,492.402 1356.708,479.513 1352.276,471.530 C 1351.625,470.359 1350.530,468.387 1349.841,467.147 C 1349.152,465.907 1348.056,463.934 1347.407,462.763 C 1338.546,446.798 1323.811,423.399 1313.177,408.410 C 1276.714,357.010 1235.676,313.357 1187.279,274.486 C 1171.263,261.623 1148.667,245.271 1134.059,235.973 C 1115.452,224.130 1100.207,215.180 1084.909,207.117 C 1075.890,202.363 1056.206,192.694 1049.013,189.485 C 1047.774,188.932 1045.068,187.750 1043.002,186.860 C 1040.935,185.969 1038.118,184.742 1036.740,184.132 C 1035.362,183.523 1032.883,182.500 1031.229,181.858 C 1029.576,181.216 1028.009,180.500 1027.748,180.268 C 1027.486,180.036 1026.976,179.845 1026.615,179.845 C 1026.254,179.845 1024.890,179.372 1023.584,178.793 C 1022.278,178.215 1020.703,177.538 1020.083,177.290 C 1019.463,177.042 1018.449,176.635 1017.829,176.386 C 1017.208,176.136 1014.222,174.987 1011.191,173.834 C 1008.160,172.680 1005.229,171.546 1004.678,171.315 C 1004.127,171.083 1002.211,170.413 1000.420,169.826 C 998.629,169.239 996.713,168.560 996.162,168.317 C 995.091,167.846 989.417,165.989 980.883,163.317 C 977.990,162.412 974.383,161.283 972.867,160.808 C 971.352,160.334 968.421,159.437 966.355,158.815 C 964.288,158.193 962.147,157.500 961.596,157.276 C 960.669,156.900 956.527,155.790 952.328,154.792 C 951.364,154.563 948.771,153.889 946.567,153.294 C 944.363,152.700 941.770,152.016 940.806,151.775 C 939.841,151.534 938.151,151.111 937.049,150.835 C 928.340,148.658 924.345,147.737 919.264,146.733 C 917.749,146.433 915.607,146.004 914.505,145.780 C 913.403,145.555 911.205,145.126 909.621,144.824 C 908.037,144.523 905.444,144.029 903.860,143.726 C 900.346,143.054 897.493,142.536 893.214,141.795 C 891.423,141.485 888.718,141.016 887.203,140.752 C 882.365,139.910 878.033,139.234 874.428,138.761 C 872.500,138.507 869.231,138.067 867.164,137.782 C 863.241,137.241 857.680,136.538 850.883,135.724 C 848.679,135.459 843.719,135.004 839.862,134.711 C 836.005,134.417 830.256,133.978 827.087,133.733 C 823.919,133.489 812.386,133.018 801.460,132.687 C 781.517,132.083 751.301,132.566 736.413,133.728 C 733.245,133.976 727.496,134.417 723.639,134.711 C 719.782,135.004 714.709,135.473 712.367,135.753 C 710.025,136.033 706.193,136.486 703.851,136.759 C 695.822,137.697 686.201,139.083 676.048,140.764 C 668.687,141.982 667.427,142.197 666.279,142.431 C 665.590,142.572 663.730,142.932 662.146,143.231 C 656.082,144.378 653.878,144.807 649.998,145.595 C 647.793,146.043 645.088,146.585 643.986,146.800 C 635.315,148.487 634.310,148.716 626.452,150.789 C 623.146,151.662 619.595,152.582 618.562,152.835 C 617.529,153.087 615.838,153.502 614.805,153.756 C 612.664,154.281 605.716,156.139 603.283,156.836 C 602.388,157.092 600.922,157.500 600.027,157.743 C 599.131,157.985 596.708,158.739 594.641,159.418 C 592.575,160.097 589.193,161.172 587.127,161.806 C 585.060,162.440 581.341,163.606 578.861,164.395 C 576.381,165.184 573.563,166.067 572.599,166.358 C 571.635,166.648 570.395,167.085 569.844,167.327 C 569.293,167.570 566.700,168.469 564.083,169.325 C 561.465,170.181 558.817,171.095 558.196,171.356 C 556.356,172.130 555.344,172.532 543.042,177.378 C 536.567,179.929 529.855,182.654 528.126,183.435 C 526.397,184.216 524.881,184.855 524.757,184.855 C 524.633,184.855 523.055,185.531 521.250,186.358 C 519.446,187.184 517.857,187.861 517.721,187.861 C 517.585,187.861 515.562,188.762 513.225,189.864 C 510.889,190.967 507.004,192.796 504.594,193.930 C 489.815,200.883 472.721,209.799 458.881,217.773 C 449.950,222.919 450.067,222.849 436.588,231.206 C 420.915,240.924 411.092,247.655 394.257,260.213 C 365.818,281.427 347.344,297.405 322.101,322.619 C 297.149,347.543 280.419,366.832 259.960,394.268 C 239.716,421.415 223.661,446.786 206.551,478.669 C 202.948,485.383 192.210,507.275 189.412,513.611 C 188.413,515.874 187.951,516.916 185.360,522.753 C 184.748,524.131 183.934,525.991 183.549,526.886 C 183.165,527.782 182.531,529.247 182.141,530.143 C 181.750,531.038 180.491,534.138 179.344,537.031 C 178.197,539.924 176.964,542.967 176.605,543.794 C 176.246,544.620 175.453,546.649 174.844,548.302 C 174.234,549.956 173.554,551.759 173.331,552.310 C 172.469,554.440 171.203,557.917 170.505,560.075 C 170.103,561.315 169.576,562.780 169.333,563.331 C 169.089,563.882 168.409,565.798 167.822,567.589 C 167.235,569.380 166.559,571.297 166.319,571.848 C 166.080,572.399 165.613,573.751 165.281,574.853 C 164.949,575.955 164.510,577.308 164.306,577.859 C 164.101,578.410 162.978,581.904 161.810,585.624 C 159.149,594.092 159.054,594.404 158.304,597.146 C 157.964,598.386 157.492,599.964 157.253,600.653 C 157.015,601.342 156.458,603.258 156.015,604.911 C 155.573,606.564 155.021,608.593 154.788,609.420 C 154.120,611.794 152.257,618.765 151.775,620.691 C 151.534,621.656 151.111,623.346 150.835,624.449 C 149.275,630.691 148.528,633.818 147.784,637.223 C 147.453,638.738 146.978,640.880 146.728,641.982 C 146.479,643.084 146.041,645.113 145.755,646.491 C 145.469,647.869 145.040,649.897 144.802,651 C 144.392,652.898 144.084,654.473 142.744,661.520 C 141.810,666.433 141.152,670.212 139.735,678.803 C 138.317,687.398 136.597,700.041 135.934,706.731 C 135.713,708.963 135.792,709.862 136.208,709.862 C 136.531,709.862 136.873,709.581 136.969,709.236 C 137.770,706.380 139.224,700.721 140.281,696.337 C 141.170,692.647 141.685,690.931 144.864,681.057 C 145.663,678.577 146.533,676.157 147.744,672.409 C 147.997,671.930 148.695,670.186 149.296,668.533 C 149.896,666.880 150.590,665.020 150.839,664.400 C 151.087,663.780 151.493,662.766 151.741,662.146 C 151.989,661.526 152.666,659.951 153.244,658.645 C 153.823,657.339 154.296,656.162 154.296,656.030 C 154.296,655.897 154.835,654.598 155.492,653.144 C 156.150,651.689 157.185,649.371 157.791,647.994 C 165.522,630.418 178.800,607.837 192.404,589.131 C 195.764,584.510 196.602,583.463 205.627,572.616 C 223.706,550.884 247.030,529.798 271.376,513.176 C 280.833,506.719 304.286,493.103 312.099,489.534 C 324.068,484.065 328.678,482.066 335.143,479.539 C 345.284,475.576 359.560,470.839 368.081,468.609 C 379.240,465.690 382.344,464.941 388.245,463.742 C 395.053,462.358 398.526,461.772 410.914,459.914 C 412.636,459.656 416.975,459.198 420.557,458.898 C 424.139,458.597 429.662,458.133 432.831,457.866 C 440.275,457.240 467.468,457.240 474.912,457.866 C 478.080,458.133 483.603,458.597 487.185,458.898 C 494.191,459.486 497,459.862 509.854,461.930 C 523.538,464.131 539.790,468.282 558.010,474.228 C 574.470,479.599 596.682,489.525 611.674,498.209 C 628.838,508.151 636.737,513.285 647.743,521.654 C 672.329,540.348 687.594,555.174 707.676,579.863 C 715.609,589.616 724.907,603.127 732.967,616.610 C 737.650,624.445 747.011,642.487 750.159,649.747 C 750.936,651.538 751.973,653.905 752.464,655.007 C 754.879,660.426 758.960,671.339 762.208,681.057 C 764.381,687.559 766.143,693.799 769.494,706.857 C 770.829,712.057 773.571,726.551 774.756,734.660 C 777.618,754.262 779.038,780.534 778.224,798.783 C 777.179,822.183 771.739,853.400 764.953,874.929 C 764.085,877.685 762.964,881.292 762.463,882.945 C 761.961,884.598 760.834,887.867 759.959,890.209 C 759.083,892.551 758.187,895.030 757.968,895.719 C 757.143,898.317 753.512,907.111 750.316,914.255 C 748.442,918.445 741.468,932.518 739.642,935.796 C 738.644,937.587 737.191,940.213 736.414,941.632 C 735.636,943.051 734.672,944.741 734.270,945.389 C 733.869,946.037 732.007,949.047 730.133,952.077 C 726.939,957.241 721.637,965.201 716.782,972.116 C 713.277,977.108 699.710,993.930 695.546,998.444 C 680.526,1014.732 664.048,1029.808 648.495,1041.492 C 642.066,1046.321 623.237,1058.836 617.435,1062.135 C 599.805,1072.160 584.942,1079.242 569.343,1085.050 C 565.485,1086.486 561.431,1088.002 560.333,1088.419 C 552.034,1091.568 538.861,1095.270 522.252,1099.122 C 518.987,1099.879 510.510,1101.469 506.472,1102.081 C 504.406,1102.395 501.362,1102.858 499.709,1103.111 C 480.416,1106.063 459.918,1107.128 440.204,1106.203 C 432.981,1105.864 425.154,1105.368 422.812,1105.102 C 414.574,1104.166 410.010,1103.584 407.282,1103.122 C 405.766,1102.865 402.948,1102.412 401.020,1102.115 C 393.315,1100.929 384.884,1099.278 378.977,1097.799 C 370.809,1095.754 362.320,1093.533 360.960,1093.086 C 360.124,1092.811 356.735,1091.708 353.428,1090.634 C 337.188,1085.362 326.987,1081.182 309.845,1072.777 C 296.296,1066.133 288.946,1061.956 275.989,1053.537 C 271.024,1050.310 258.713,1041.607 255.490,1039.044 C 238.672,1025.672 224.314,1012.302 212.099,998.639 C 204.842,990.522 195.700,979.148 190.365,971.599 C 188.850,969.454 186.878,966.719 185.982,965.520 C 185.086,964.321 184.354,963.245 184.354,963.128 C 184.354,963.011 182.776,960.534 180.847,957.623 C 178.918,954.712 177.340,952.202 177.340,952.044 C 177.340,951.886 176.664,950.774 175.838,949.573 C 175.011,948.371 174.335,947.238 174.335,947.055 C 174.335,946.871 173.881,946.084 173.327,945.306 C 172.772,944.527 171.677,942.689 170.892,941.221 C 170.107,939.753 168.643,937.086 167.640,935.295 C 165.343,931.195 158.994,918.143 156.673,912.752 C 154.562,907.848 154.153,906.893 153.677,905.738 C 153.392,905.050 152.965,903.979 152.726,903.359 C 152.174,901.924 151.445,900.103 150.722,898.349 C 150.410,897.592 149.933,896.408 149.662,895.719 C 149.391,895.030 148.970,894.076 147.874,890.434 C 147.648,890.173 146.720,887.591 145.810,884.698 C 144.901,881.805 143.984,878.987 143.773,878.436 C 143.562,877.885 143.112,876.420 142.773,875.180 C 142.434,873.940 141.984,872.362 141.772,871.673 C 141.561,870.984 141.110,869.406 140.770,868.166 C 140.431,866.926 139.978,865.348 139.764,864.660 C 139.550,863.971 139.100,862.055 138.764,860.401 C 137.958,856.432 137.038,853.981 136.255,853.720 C 135.790,853.564 135.711,853.895 135.964,854.951 C 136.154,855.745 136.513,858.197 136.762,860.401 C 137.012,862.606 137.438,865.987 137.710,867.916 C 137.981,869.845 138.435,873.113 138.717,875.180 C 139.223,878.879 139.943,883.533 140.770,888.455 C 141.002,889.833 141.433,892.425 141.730,894.216 C 142.027,896.007 142.494,898.600 142.770,899.977 C 143.045,901.355 143.498,903.722 143.776,905.237 C 144.541,909.412 146.018,916.669 146.782,920.016 C 147.033,921.118 147.473,923.147 147.759,924.525 C 148.347,927.357 149.106,930.648 149.811,933.417 C 150.074,934.450 150.503,936.141 150.766,937.174 C 151.029,938.207 151.480,940.010 151.768,941.181 C 152.921,945.866 153.251,947.149 153.795,949.072 C 154.107,950.174 154.558,951.864 154.797,952.829 C 155.036,953.793 155.459,955.371 155.737,956.336 C 156.016,957.300 156.482,958.935 156.773,959.968 C 157.064,961.001 157.540,962.692 157.831,963.725 C 158.886,967.471 159.242,968.669 160.321,972.116 C 160.924,974.045 161.533,976.245 161.672,977.006 C 162.644,979.186 163.904,983.571 164.258,984.772 C 164.502,985.251 165.189,987.220 165.786,989.149 C 166.383,991.077 167.071,993.106 167.314,993.657 C 167.558,994.208 168.237,996.124 168.824,997.915 C 169.411,999.706 170.080,1001.623 170.309,1002.174 C 170.539,1002.725 170.998,1003.964 171.329,1004.929 C 171.660,1005.893 172.111,1007.133 172.332,1007.684 C 172.553,1008.235 173.229,1010.039 173.834,1011.692 C 174.438,1013.345 175.116,1015.148 175.340,1015.700 C 175.563,1016.251 176.575,1018.843 177.588,1021.461 C 179.465,1026.313 179.924,1027.420 181.791,1031.600 C 182.374,1032.906 182.851,1034.083 182.851,1034.217 C 182.851,1034.351 183.527,1035.937 184.354,1037.742 C 185.180,1039.547 185.857,1041.123 185.857,1041.246 C 185.857,1041.369 186.395,1042.659 187.052,1044.114 C 187.709,1045.569 188.833,1048.055 189.549,1049.638 C 215.818,1107.714 251.331,1162.691 293.994,1211.325 C 333.542,1256.409 384.540,1299.802 435.586,1331.805 C 445.290,1337.889 458.072,1345.508 464.141,1348.826 C 465.519,1349.580 466.871,1350.366 467.147,1350.574 C 468.600,1351.671 499.671,1367.473 506.778,1370.730 C 508.401,1371.473 511.696,1372.995 514.101,1374.111 C 516.506,1375.228 518.584,1376.141 518.720,1376.141 C 518.856,1376.141 520.269,1376.729 521.862,1377.448 C 523.454,1378.166 525.434,1379.041 526.260,1379.392 C 527.087,1379.743 528.552,1380.377 529.516,1380.801 C 530.481,1381.225 533.073,1382.284 535.277,1383.155 C 537.482,1384.026 539.961,1385.034 540.788,1385.395 C 541.615,1385.755 545.334,1387.224 549.054,1388.657 C 552.773,1390.091 556.268,1391.445 556.819,1391.667 C 557.370,1391.889 558.610,1392.342 559.574,1392.673 C 560.538,1393.004 561.778,1393.469 562.329,1393.705 C 562.880,1393.942 567.502,1395.496 572.599,1397.162 C 581.814,1400.172 584.452,1401.006 591.636,1403.178 C 593.702,1403.803 595.844,1404.488 596.395,1404.701 C 598.072,1405.348 602.795,1406.788 604.786,1407.258 C 608.399,1408.112 610.452,1408.633 614.429,1409.706 C 618.245,1410.735 619.789,1411.129 624.073,1412.163 C 625.106,1412.413 628.206,1413.191 630.961,1413.893 C 636.085,1415.198 638.210,1415.677 643.485,1416.712 C 645.138,1417.036 647.393,1417.490 648.495,1417.721 C 649.597,1417.952 651.738,1418.371 653.254,1418.652 C 658.281,1419.586 661.997,1420.303 664.025,1420.729 C 665.127,1420.961 667.719,1421.411 669.786,1421.729 C 671.852,1422.046 674.445,1422.497 675.547,1422.731 C 679.082,1423.479 691.455,1425.248 703.600,1426.740 C 706.080,1427.045 708.898,1427.409 709.862,1427.550 C 713.139,1428.026 732.664,1429.571 746.683,1430.462 C 761.196,1431.384 799.527,1431.392 814.563,1430.477M 465.894,1063.548 C 479.080,1062.846 493.164,1061.305 502.464,1059.547 C 511.056,1057.923 511.566,1057.814 520.374,1055.726 C 531.516,1053.085 548.416,1047.724 558.071,1043.770 C 589.821,1030.768 612.724,1016.687 640.229,993.260 C 651.779,983.423 672.434,960.802 681.721,947.819 C 684.917,943.352 694.333,929.299 694.333,928.996 C 694.333,928.826 694.757,928.088 695.276,927.357 C 695.795,926.626 696.697,925.182 697.280,924.149 C 697.863,923.116 698.760,921.537 699.272,920.642 C 701.764,916.287 702.445,915.007 705.481,908.970 C 710.629,898.734 712.693,894.184 716.377,884.949 C 719.259,877.722 723.889,864.156 723.889,862.938 C 723.889,861.813 723.064,861.973 722.126,863.282 C 714.240,874.269 707.516,881.935 699.155,889.472 C 692.687,895.301 680.255,904.737 679.040,904.737 C 678.857,904.737 678.109,905.161 677.377,905.679 C 673.641,908.328 656.808,916.760 655.256,916.760 C 654.974,916.760 654.351,916.977 653.873,917.243 C 653.015,917.719 647.334,919.604 640.479,921.685 C 634.188,923.595 625.865,925.203 617.435,926.139 C 612.924,926.640 591.095,926.631 585.875,926.127 C 583.670,925.914 580.740,925.533 579.362,925.280 C 577.984,925.028 575.392,924.560 573.601,924.241 C 571.810,923.923 569.556,923.441 568.591,923.171 C 567.627,922.901 566.162,922.506 565.335,922.293 C 561.342,921.262 559.248,920.631 558.454,920.218 C 556.176,919.867 553.404,918.405 552.178,918.321 C 551.137,917.792 549.796,917.240 545.798,915.698 C 539.285,913.186 524.444,904.996 518.746,900.768 C 517.368,899.746 514.437,897.573 512.233,895.938 C 503.227,889.260 487.014,871.609 481.201,862.155 C 480.439,860.915 479.294,859.111 478.658,858.147 C 473.401,850.184 467.270,836.808 463.963,826.086 C 460.575,815.104 459.643,810.712 458.120,798.533 C 457.271,791.749 457.119,769.482 457.887,764.508 C 459.265,755.595 459.610,753.759 460.989,748.020 C 461.805,744.623 463.220,739.550 464.132,736.749 C 473.116,709.150 491.030,684.058 514.237,666.570 C 519.697,662.455 526.566,657.739 528.013,657.110 C 528.427,656.930 529.892,656.108 531.270,655.283 C 533.649,653.859 540.138,650.598 542.291,649.745 C 543.261,649.361 544.604,648.797 548.803,647.009 C 549.905,646.540 551.198,645.950 551.677,645.697 C 554.088,645.171 558.165,643.529 559.443,643.083 C 560.204,642.937 561.728,642.557 562.830,642.241 C 567.970,640.764 574.998,639.344 583.119,638.138 C 588.433,637.349 612.829,637.043 617.686,637.705 C 624.414,638.621 630.708,639.703 635.720,640.806 C 640.822,641.928 652.084,645.518 656.260,647.354 C 657.499,647.899 658.965,648.531 659.516,648.761 C 664.861,650.984 674.995,656.318 678.643,658.827 C 679.794,659.619 680.900,660.267 681.099,660.267 C 681.299,660.267 683.287,661.663 685.518,663.369 C 687.749,665.076 690.504,667.184 691.642,668.053 C 702.698,676.506 711.835,686.286 722.034,700.585 C 723.053,702.013 723.889,702.229 723.889,701.064 C 723.889,699.757 719.167,686.047 715.876,677.801 C 711.969,668.012 711.679,667.364 706.457,656.761 C 702.718,649.165 701.052,646.074 696.335,637.975 C 682.232,613.762 660.664,587.974 638.475,568.797 C 621.051,553.737 600.884,540.071 581.773,530.373 C 570.838,524.824 556.069,518.548 545.781,515.079 C 534.084,511.135 516.098,506.379 505.971,504.552 C 495.773,502.712 492.926,502.333 475.316,500.473 C 469.028,499.808 438.715,499.808 432.426,500.473 C 414.600,502.356 412.251,502.667 402.272,504.467 C 388.023,507.038 364.543,513.653 352.927,518.369 C 326.661,529.035 312.724,536.563 289.554,552.598 C 279.842,559.320 265.639,571.418 255.221,581.843 C 240.517,596.559 229.015,610.531 218.091,626.953 C 215.039,631.541 208.901,641.538 208.901,641.920 C 208.901,642.036 208.043,643.562 206.995,645.313 C 205.152,648.392 198.482,661.683 196.474,666.279 C 195.933,667.519 195.033,669.548 194.476,670.788 C 191.280,677.898 185.425,693.758 183.797,699.718 C 183.552,700.613 183.126,702.135 182.851,703.100 C 182.575,704.064 182.125,705.642 181.849,706.606 C 181.574,707.571 181.106,709.205 180.810,710.238 C 180.513,711.271 180.074,713.019 179.835,714.121 C 179.595,715.223 179.183,717.026 178.920,718.128 C 177.758,722.989 177.249,725.314 176.809,727.772 C 172.925,749.475 172.080,758.864 172.082,780.248 C 172.083,796.157 172.360,803 173.325,811.057 C 174.458,820.507 174.922,824.018 175.363,826.461 C 175.624,827.908 176.052,830.275 176.315,831.721 C 176.578,833.168 177.050,835.817 177.363,837.608 C 177.677,839.399 178.114,841.428 178.335,842.116 C 178.556,842.805 179.019,844.721 179.365,846.375 C 180.120,849.978 181.353,854.769 182.879,860.026 C 183.139,860.921 183.552,862.387 183.797,863.282 C 185.187,868.373 189.805,881.322 191.923,886.070 C 192.444,887.238 192.870,888.387 192.870,888.623 C 192.870,888.860 193.187,889.707 193.574,890.507 C 194.254,891.915 195.059,893.716 197.357,898.975 C 198.517,901.629 205.445,915.439 206.901,918 C 211.398,925.908 217.440,935.722 220.524,940.123 C 221.709,941.814 223.677,944.632 224.900,946.385 C 233.833,959.200 251.542,978.975 264.262,990.339 C 278.308,1002.887 284.833,1007.937 300.326,1018.247 C 322.734,1033.159 350.201,1045.655 376.723,1053.003 C 378.790,1053.575 381.269,1054.263 382.234,1054.531 C 383.815,1054.969 395.161,1057.669 398.264,1058.344 C 406.683,1060.176 421.574,1062.137 433.833,1063.026 C 448.315,1064.076 454.178,1064.172 465.894,1063.548M 617.358,895.690 C 627.103,893.953 628.845,893.576 633.967,892.093 C 642.422,889.645 647.329,887.662 654.543,883.780 C 666.954,877.101 671.674,873.691 681.308,864.435 C 688.056,857.951 692.328,853.023 696.312,847.126 C 707.308,830.852 712.534,817.520 715.952,797.030 C 716.752,792.235 716.729,773.503 715.918,768.475 C 713.944,756.246 713.444,753.990 711.083,746.683 C 708.634,739.103 705.505,731.950 702.240,726.468 C 701.197,724.718 700.344,723.188 700.344,723.067 C 700.344,722.618 694.076,713.516 691.941,710.864 C 681.249,697.588 668.059,686.779 653.410,679.287 C 651.342,678.229 649.051,677.131 648.320,676.847 C 638.489,673.020 630.096,670.354 624.699,669.345 C 623.184,669.061 620.478,668.543 618.688,668.193 C 613.720,667.222 589.634,667.389 584.121,668.432 C 581.779,668.876 579.074,669.383 578.110,669.559 C 576.266,669.896 570.049,671.623 568.341,672.272 C 567.790,672.481 566.437,672.924 565.335,673.256 C 564.233,673.588 562.880,674.048 562.329,674.279 C 561.778,674.509 559.975,675.209 558.322,675.834 C 550.986,678.608 537.990,686.172 531.571,691.404 C 519.187,701.498 510.783,711.015 503.597,723.084 C 499.485,729.989 498.344,732.154 496.967,735.662 C 496.319,737.315 495.621,738.893 495.417,739.169 C 494.186,740.828 490.059,755.167 488.863,761.937 C 486.484,775.407 486.936,793.006 490.008,806.548 C 491.356,812.487 493.106,818.558 494.415,821.827 C 499.133,833.614 503.998,842.518 510.427,851.134 C 513.862,855.737 525.002,867.266 529.767,871.149 C 533.295,874.024 539.023,878.011 543.099,880.430 C 547.888,883.271 560.572,889.220 564.834,890.622 C 573.040,893.323 585.328,895.867 592.888,896.429 C 597.367,896.762 614.193,896.254 617.358,895.690" stroke="#000000" fill="#000000" stroke-width="1" />
</g></svg>